<svg width="112" height="112" viewBox="0 0 112 112" fill="#48c248" xmlns="http://www.w3.org/2000/svg">
<path d="M99.5678 5.82384C92.1736 9.34856 86.0433 11.494 79.875 12.72C75.2776 13.6395 74.1282 14.1375 74.5113 15.0954C75.1627 16.8194 82.8251 15.9765 91.1771 13.2564L96.273 11.5706C79.7988 27.2019 77.8449 28.7727 83.5534 28.7727C85.7371 28.7727 86.3114 28.4279 90.4109 24.4052C92.4031 22.4896 93.8976 21.1486 93.7827 21.4935C90.1431 31.4546 90.1047 32.9871 93.3996 32.9871C95.8515 32.9871 97.1541 31.2247 99.0698 25.3247C100.755 20.1908 107.383 6.97318 109.184 5.21083C111.482 3.02707 108.916 1.34132 99.5678 5.82384Z" fill="green"/>
<path d="M51.1031 55.0547C41.3336 60.6483 35.9699 70.3796 45.0881 65.9737C46.6206 65.2457 55.6623 56.0509 55.6623 55.2463C55.6239 53.9054 53.2486 53.8288 51.1031 55.0547Z" fill="#63e452"/>
<path d="M71.2933 35.0176C67.3089 38.1592 59.0718 46.7411 59.0718 47.6989C59.0718 52.7178 71.4083 44.1359 76.1206 35.8605C77.7297 33.0254 74.5115 32.4507 71.2933 35.0176Z" fill="#4a7e33"/>
<path d="M10.7988 95.8187C4.17081 102.6 0.646121 107.504 1.83378 108.385C4.7455 110.492 10.2241 105.818 16.6606 95.7421C18.7677 92.4473 14.017 92.5239 10.7988 95.8187Z" fill="#487c53"/>
<path d="M31.4486 75.1302C29.3415 76.5095 20.3765 85.5894 20.3765 86.3173C20.3765 91.3362 29.1116 85.7044 35.5863 76.5095C37.4253 73.9809 34.6669 73.0231 31.4486 75.1302Z" fill="#36f17e"/>
</svg>
