<svg width="102" height="102" viewBox="0 0 102 102" fill="none" xmlns="http://www.w3.org/2000/svg">
<path fill-rule="evenodd" clip-rule="evenodd" d="M11.4473 7.16853C13.5552 8.38134 26.3763 11.269 29.9858 11.3556C33.7686 11.4422 33.682 11.8176 29.2062 15.9758C25.5678 19.3254 25.5966 18.6902 29.1195 23.5125C35.4723 32.2042 54.906 61.6869 55.3969 60.8206C55.4258 60.7917 62.2984 42.9173 62.2984 42.8885C64.6085 36.5934 70.1527 46.3247 73.358 50.9449C77.2563 56.6047 86.1213 69.1947 89.1821 73.3818C92.474 77.9154 98.3648 86.8381 99.1156 88.4552C103.187 97.1758 97.0365 93.9994 95.7371 92.7289C71.5099 68.675 69.6907 66.6825 69.5752 66.798C69.5174 66.8558 63.1646 85.1055 62.385 87.0403C60.3925 92.0647 57.2739 91.8337 54.7328 87.7622C48.8998 78.4063 14.1616 27.8728 14.0173 27.9017C13.8729 27.9306 12.3136 29.1434 10.5232 30.5872C6.74045 33.6481 1.57159 36.5934 2.409 31.8289C3.30417 26.7755 3.15979 29.4899 6.50944 9.79627C7.31797 5.3782 11.3606 7.11078 11.4473 7.16853ZM8.70403 25.0718C7.92437 28.7391 7.95325 28.999 9.07942 27.9306C12.8333 24.4077 18.9262 21.9532 18.0022 24.3499C17.9156 24.5809 17.5979 25.8803 17.9733 26.3712C17.9733 26.3712 58.4001 84.2681 58.5444 84.2681C58.6311 84.2681 59.4396 81.9869 60.3636 79.157C66.9763 59.0303 67.8137 58.5394 78.6134 69.0215C81.9342 72.2556 84.5331 74.7101 84.4176 74.508C84.3021 74.3058 70.9901 55.7673 68.9976 52.8796C67.0052 49.992 65.3015 47.6242 65.2149 47.6242C64.8972 47.6242 60.1038 61.2249 58.6599 65.1232C57.7359 67.6354 55.8878 70.1765 53.3467 67.1156C52.8558 66.5092 27.6757 30.1829 21.3518 20.7981C20.4567 19.4987 19.9369 18.7768 21.8716 17.9105C23.6619 17.102 26.6651 14.1855 25.8276 14.0122C21.2363 13.117 11.6205 10.8069 10.812 10.6914C10.5232 10.6337 9.39706 21.751 8.70403 25.0718Z" fill="black"/>
</svg>
