<svg viewBox="0 0 102 102" xmlns="http://www.w3.org/2000/svg" xmlns:svg="http://www.w3.org/2000/svg">
 <g class="layer">
  <title>Layer 1</title>
  <path clip-rule="evenodd" d="m91.35,7.17c-2.11,1.21 -14.93,4.1 -18.54,4.19c-3.78,0.08 -3.69,0.46 0.78,4.62c3.64,3.35 3.61,2.71 0.09,7.53c-6.35,8.69 -25.79,38.18 -26.28,37.31c-0.03,-0.03 -6.9,-17.9 -6.9,-17.93c-2.31,-6.3 -7.85,3.43 -11.06,8.05c-3.9,5.66 -12.76,18.25 -15.82,22.44c-3.29,4.54 -9.19,13.46 -9.94,15.08c-4.07,8.72 2.08,5.54 3.38,4.27c24.23,-24.06 26.05,-26.05 26.16,-25.93c0.06,0.06 6.41,18.31 7.19,20.24c2,5.02 5.12,4.79 7.66,0.72c5.83,-9.35 40.57,-59.89 40.71,-59.86c0.15,0.03 1.71,1.24 3.5,2.69c3.78,3.06 8.95,6 8.11,1.24c-0.89,-5.05 -0.75,-2.34 -4.1,-22.03c-0.81,-4.42 -4.85,-2.69 -4.94,-2.63zm2.75,17.9c0.77,3.67 0.75,3.93 -0.38,2.86c-3.75,-3.52 -9.85,-5.98 -8.92,-3.58c0.08,0.23 0.4,1.53 0.03,2.02c0,0 -40.43,57.9 -40.58,57.9c-0.08,0 -0.89,-2.28 -1.81,-5.11c-6.62,-20.13 -7.45,-20.62 -18.25,-10.14c-3.32,3.24 -5.92,5.69 -5.81,5.49c0.12,-0.2 13.43,-18.74 15.42,-21.63c1.99,-2.89 3.7,-5.26 3.78,-5.26c0.32,0 5.12,13.6 6.56,17.5c0.92,2.52 4.82,2.61 5.31,2c0.49,-0.61 25.67,-36.94 32,-46.32c0.89,-1.3 1.41,-2.02 -0.52,-2.89c-1.79,-0.81 -4.8,-3.72 -3.96,-3.9c4.59,-0.89 14.21,-3.2 15.02,-3.32c0.29,-0.06 1.41,11.06 2.11,14.38z" fill="#ffff56" fill-rule="evenodd" id="svg_1" stroke="#8638e0"/>
 </g>
</svg>
