<svg viewBox="0 0 193 41.319" fill="none" xmlns="http://www.w3.org/2000/svg">
  <defs></defs>
  <path d="M173.928 21.1292C115.811 44.9386 58.751 45.774 0 26.1417C4.22669 21.7558 7.81938 23.4266 10.5667 24.262C31.7002 29.9011 53.4676 30.5277 75.0238 31.3631C106.09 32.6162 135.465 25.5151 164.207 14.0282C165.475 13.6104 166.532 12.775 169.068 11.1042C154.486 8.18025 139.903 13.1928 127.223 7.34485C127.435 6.50944 127.435 5.46513 127.646 4.62971C137.156 4.00315 146.877 3.37658 156.388 2.54117C165.898 1.70575 175.196 0.661517 184.706 0.0349538C191.68 -0.382755 194.639 2.9589 192.103 9.22453C188.933 17.3698 184.495 24.8886 180.48 32.6162C180.057 33.4516 179.423 34.4959 178.578 34.9136C176.253 35.749 173.928 35.9579 171.392 36.5845C170.97 34.4959 169.913 32.1985 170.124 30.3188C170.547 27.8126 172.026 25.724 173.928 21.1292Z" style="stroke-linecap: round; stroke-linejoin: round; fill: rgb(175, 4, 4); stroke: rgb(228, 228, 12);"></path>
</svg>