<svg width="475" height="344" viewBox="0 0 475 344" fill="none" xmlns="http://www.w3.org/2000/svg">
<path fill-rule="evenodd" clip-rule="evenodd" d="M392.774 47.1359C337.559 14.7733 225.14 18.5857 151.559 74.9237C104.065 111.268 88.2724 170.486 114.476 212.931C117.05 217.167 117.284 218.014 115.88 218.946C114.944 219.539 86.5176 237.075 79.3818 241.481C63.5894 251.478 64.5253 251.308 60.431 243.429C54.5818 232.077 39.2574 225.13 37.1517 232.84C33.8762 244.7 4.74805 307.646 4.74805 309.679C4.74805 314.593 15.1593 318.49 24.2838 316.965C32.1216 315.695 36.6838 315.779 55.0498 313.068C71.3102 310.611 85.8158 308.832 105.352 306.968C129.918 304.596 126.876 304.257 96.9289 284.349L99.6196 282.824C105.235 279.689 141.382 263.508 151.442 259.611L161.97 255.544L172.499 260.204C197.182 271.048 235.668 283.755 258.246 288.5C319.778 301.462 404.121 279.096 435.472 241.65C475.479 193.954 481.328 141.004 451.147 100.848C430.442 72.9751 419.094 62.5547 392.774 47.1359ZM213.559 52.9815C286.789 19.0939 371.132 25.109 422.838 91.1049C457.698 135.667 458.868 173.621 426.581 222.419C398.974 264.186 345.279 287.822 284.917 284.687C261.521 283.501 209.699 267.744 181.389 253.172C163.842 244.192 156.004 242.667 146.295 246.564C142.785 248.004 135.884 250.715 131.087 252.579C99.9705 264.863 75.0535 278.079 77.2762 281.129C78.6799 283.078 97.046 295.531 98.4498 295.531C99.6196 295.531 100.555 297.226 96.9289 297.226C92.6007 297.226 57.9743 301.377 43.0007 303.749C26.1556 306.375 27.0913 307.392 33.5253 293.752C40.6611 278.418 47.0951 259.018 48.9669 253.934L52.1253 257.747C64.7592 273.335 79.6158 260.204 92.0158 252.325C104.533 244.361 128.163 229.705 137.521 224.113C141.265 221.911 138.574 218.861 138.574 218.776C100.204 163.794 133.661 90.0036 213.559 52.9815Z" fill="red"/>
</svg>
